<svg width="1200" height="320" viewBox="0 0 1200 320" fill="none" xmlns="http://www.w3.org/2000/svg">
  <defs>
    <linearGradient id="bg" x1="0" y1="0" x2="1200" y2="320" gradientUnits="userSpaceOnUse">
      <stop stop-color="#0F172A" />
      <stop offset="0.55" stop-color="#0B2A3C" />
      <stop offset="1" stop-color="#164E63" />
    </linearGradient>
    <linearGradient id="accent" x1="80" y1="40" x2="1120" y2="280" gradientUnits="userSpaceOnUse">
      <stop stop-color="#38BDF8" />
      <stop offset="1" stop-color="#34D399" />
    </linearGradient>
    <filter id="glow" x="-20%" y="-20%" width="140%" height="140%">
      <feGaussianBlur stdDeviation="18" result="blur" />
      <feColorMatrix in="blur" type="matrix" values="1 0 0 0 0.08  0 1 0 0 0.55  0 0 1 0 0.65  0 0 0 0.35 0" />
    </filter>
  </defs>

  <rect width="1200" height="320" rx="28" fill="url(#bg)" />
  <circle cx="1040" cy="76" r="80" fill="#22C55E" opacity="0.16" filter="url(#glow)" />
  <circle cx="1088" cy="232" r="118" fill="#38BDF8" opacity="0.12" filter="url(#glow)" />
  <circle cx="930" cy="160" r="52" fill="#34D399" opacity="0.12" />
  <path d="M820 40H1128C1148.99 40 1166 57.0132 1166 78V242C1166 262.987 1148.99 280 1128 280H820C799.013 280 782 262.987 782 242V78C782 57.0132 799.013 40 820 40Z" fill="#061622" opacity="0.72" stroke="url(#accent)" stroke-opacity="0.45" />
  <rect x="820" y="40" width="346" height="240" rx="24" fill="url(#accent)" opacity="0.08" />
  <circle cx="844" cy="66" r="6" fill="#F87171" />
  <circle cx="868" cy="66" r="6" fill="#FBBF24" />
  <circle cx="892" cy="66" r="6" fill="#34D399" />
  <rect x="844" y="100" width="250" height="14" rx="7" fill="#D1FAE5" opacity="0.9" />
  <rect x="844" y="132" width="190" height="14" rx="7" fill="#BAE6FD" opacity="0.85" />
  <rect x="844" y="164" width="224" height="14" rx="7" fill="#E2E8F0" opacity="0.75" />
  <rect x="844" y="196" width="156" height="14" rx="7" fill="#BAE6FD" opacity="0.85" />
  <rect x="844" y="228" width="216" height="14" rx="7" fill="#D1FAE5" opacity="0.9" />

  <text x="80" y="116" fill="#F8FAFC" font-size="56" font-weight="700" font-family="Segoe UI, Arial, sans-serif">HeartBeat Yonder</text>
  <text x="80" y="160" fill="#C7D2FE" font-size="24" font-weight="500" font-family="Segoe UI, Arial, sans-serif">Full-stack developer building practical products end to end</text>
  <text x="80" y="196" fill="#E2E8F0" font-size="18" font-weight="400" font-family="Segoe UI, Arial, sans-serif">Vue  ·  React  ·  Node.js  ·  Go  ·  MySQL  ·  Redis  ·  Docker</text>

  <g>
    <rect x="80" y="228" width="118" height="34" rx="17" fill="#0EA5E9" opacity="0.18" stroke="#7DD3FC" stroke-opacity="0.45" />
    <text x="99" y="250" fill="#E0F2FE" font-size="14" font-weight="600" font-family="Segoe UI, Arial, sans-serif">Frontend</text>

    <rect x="208" y="228" width="110" height="34" rx="17" fill="#10B981" opacity="0.18" stroke="#6EE7B7" stroke-opacity="0.45" />
    <text x="231" y="250" fill="#DCFCE7" font-size="14" font-weight="600" font-family="Segoe UI, Arial, sans-serif">Backend</text>

    <rect x="328" y="228" width="120" height="34" rx="17" fill="#F59E0B" opacity="0.18" stroke="#FCD34D" stroke-opacity="0.45" />
    <text x="351" y="250" fill="#FEF3C7" font-size="14" font-weight="600" font-family="Segoe UI, Arial, sans-serif">Shipping</text>
  </g>
</svg>
